<?xml version="1.0" encoding="iso-8859-1"?>
<!-- Generator: Adobe Illustrator 18.0.0, SVG Export Plug-In . SVG Version: 6.00 Build 0)  -->
<!DOCTYPE svg PUBLIC "-//W3C//DTD SVG 1.1//EN" "http://www.w3.org/Graphics/SVG/1.1/DTD/svg11.dtd">
<svg version="1.1" id="Capa_1" xmlns="http://www.w3.org/2000/svg" xmlns:xlink="http://www.w3.org/1999/xlink" x="0px" y="0px"
	 viewBox="0 0 213.388 213.388" style="enable-background:new 0 0 213.388 213.388;" xml:space="preserve">
<path d="M73.549,176.614c0,20.309-16.464,36.773-36.773,36.773C16.465,213.387,0,196.922,0,176.614
	c0-20.307,16.465-36.775,36.775-36.775C57.085,139.838,73.549,156.307,73.549,176.614z M32.581,70.485v36.773
	c40.556,0,73.549,32.994,73.549,73.551h36.775C142.904,119.975,93.414,70.485,32.581,70.485z M41.775,0v36.774
	c74.35,0,134.838,60.488,134.838,134.84h36.775C213.388,76.985,136.402,0,41.775,0z"/>
<g>
</g>
<g>
</g>
<g>
</g>
<g>
</g>
<g>
</g>
<g>
</g>
<g>
</g>
<g>
</g>
<g>
</g>
<g>
</g>
<g>
</g>
<g>
</g>
<g>
</g>
<g>
</g>
<g>
</g>
</svg>
